<svg width="72" height="72" viewBox="0 0 72 72" fill="none" xmlns="http://www.w3.org/2000/svg">
<rect width="72" height="72" rx="16" fill="white"/>
<g clip-path="url(#clip0_101_355)">
<path d="M45.8357 30.0214H42.6536C42.3 30.0214 41.9464 29.8607 41.6893 29.6036L40.4036 28.1571C40.0179 27.7393 39.4071 27.7071 38.9571 28.0607L38.8607 28.1571L37.7679 29.4107C37.4143 29.8286 36.8679 30.0536 36.3214 30.0536H18.9321C18.45 31.4679 18.1286 32.9786 18 34.4893H34.4571C34.7464 34.4893 35.0357 34.3607 35.2286 34.1679L36.7714 32.5607C36.9643 32.3679 37.2214 32.2393 37.5107 32.2393H37.575C37.8643 32.2393 38.1536 32.3679 38.3464 32.5929L39.6321 34.0393C39.8893 34.3286 40.2429 34.4893 40.5964 34.4893H54C53.8714 32.9786 53.55 31.4679 53.0679 30.0536H45.8357V30.0214ZM35.2929 38.8929L34.0071 37.4464C33.6214 37.0286 33.0107 36.9964 32.5607 37.35L32.4643 37.4464L31.3393 38.7C30.9857 39.1179 30.4714 39.3429 29.925 39.3429H18.2571C18.5464 40.8857 19.0607 42.3964 19.7357 43.8429H27.9321C28.2214 43.8429 28.4786 43.7143 28.7036 43.5214L30.2464 41.9143C30.4393 41.7214 30.6964 41.5929 30.9857 41.5929H31.05C31.3393 41.5929 31.6286 41.7214 31.8214 41.9464L33.1071 43.3929C33.3643 43.6821 33.7179 43.8429 34.0714 43.8429H52.2643C52.9393 42.4286 53.4536 40.9179 53.7429 39.3429H36.2571C35.8714 39.3429 35.5179 39.1821 35.2929 38.8929ZM41.5929 24.8786L43.1357 23.2714C43.3286 23.0786 43.5857 22.95 43.875 22.95H43.9393C44.2286 22.95 44.5179 23.0786 44.7107 23.2714L45.9964 24.7179C46.2536 25.0071 46.6071 25.1357 46.9607 25.1357H50.4321C44.3893 17.1643 33.0429 15.5893 25.0393 21.6C23.7214 22.5964 22.5321 23.7857 21.5036 25.1357H40.8214C41.1429 25.2 41.4 25.0714 41.5929 24.8786ZM29.1536 48.2786C28.7679 48.2786 28.4143 48.1179 28.1893 47.8607L26.9036 46.4143C26.5179 45.9964 25.875 45.9643 25.4571 46.35L25.3929 46.4143L24.2679 47.6679C23.9143 48.0857 23.4 48.3107 22.8536 48.3107H22.7893C29.5714 55.575 41.0464 55.9286 48.3429 49.0821C48.6321 48.825 48.8893 48.5357 49.1786 48.2464H29.1536V48.2786Z" fill="black"/>
</g>
<defs>
<clipPath id="clip0_101_355">
<rect width="36" height="36" fill="white" transform="translate(18 18)"/>
</clipPath>
</defs>
</svg>
