<svg width="215" height="214" viewBox="0 0 215 214" fill="none" xmlns="http://www.w3.org/2000/svg">
<rect x="53" y="20" width="108" height="108" rx="24" fill="url(#paint0_radial_101_840)"/>
<g filter="url(#filter0_ddddd_101_840)">
<path d="M103.296 101H110.707V86.4188L124.486 94.4776L127.928 88.4374L109.639 77.7388C108.013 76.7898 105.996 76.7898 104.37 77.7388L86.078 88.4374L89.5197 94.4776L103.299 86.4188V101H103.296Z" fill="#F7F7F9"/>
<path d="M80 77.7728L83.4417 83.813L101.734 73.1144C103.36 72.1654 104.367 70.3941 104.367 68.49V47H97.4833V63.2164L85.0222 55.9243L81.3181 62.4281L93.7761 69.7172L80 77.7728Z" fill="#F7F7F9"/>
<path d="M109.829 47V68.4931C109.829 70.3941 110.839 72.1654 112.462 73.1144L130.751 83.813L134.192 77.7728L120.447 69.7326L132.722 62.4374L129.017 55.9366L116.709 63.2473V47H109.829Z" fill="#F7F7F9"/>
</g>
<defs>
<filter id="filter0_ddddd_101_840" x="0" y="0" width="214.192" height="214" filterUnits="userSpaceOnUse" color-interpolation-filters="sRGB">
<feFlood flood-opacity="0" result="BackgroundImageFix"/>
<feColorMatrix in="SourceAlpha" type="matrix" values="0 0 0 0 0 0 0 0 0 0 0 0 0 0 0 0 0 0 127 0" result="hardAlpha"/>
<feOffset dy="1.13351"/>
<feGaussianBlur stdDeviation="1.37396"/>
<feColorMatrix type="matrix" values="0 0 0 0 1 0 0 0 0 1 0 0 0 0 1 0 0 0 0.0651039 0"/>
<feBlend mode="normal" in2="BackgroundImageFix" result="effect1_dropShadow_101_840"/>
<feColorMatrix in="SourceAlpha" type="matrix" values="0 0 0 0 0 0 0 0 0 0 0 0 0 0 0 0 0 0 127 0" result="hardAlpha"/>
<feOffset dy="2.86674"/>
<feGaussianBlur stdDeviation="3.47484"/>
<feColorMatrix type="matrix" values="0 0 0 0 1 0 0 0 0 1 0 0 0 0 1 0 0 0 0.0931789 0"/>
<feBlend mode="normal" in2="effect1_dropShadow_101_840" result="effect2_dropShadow_101_840"/>
<feColorMatrix in="SourceAlpha" type="matrix" values="0 0 0 0 0 0 0 0 0 0 0 0 0 0 0 0 0 0 127 0" result="hardAlpha"/>
<feOffset dy="5.84789"/>
<feGaussianBlur stdDeviation="7.08835"/>
<feColorMatrix type="matrix" values="0 0 0 0 1 0 0 0 0 1 0 0 0 0 1 0 0 0 0.116821 0"/>
<feBlend mode="normal" in2="effect2_dropShadow_101_840" result="effect3_dropShadow_101_840"/>
<feColorMatrix in="SourceAlpha" type="matrix" values="0 0 0 0 0 0 0 0 0 0 0 0 0 0 0 0 0 0 127 0" result="hardAlpha"/>
<feOffset dy="12.0455"/>
<feGaussianBlur stdDeviation="14.6007"/>
<feColorMatrix type="matrix" values="0 0 0 0 1 0 0 0 0 1 0 0 0 0 1 0 0 0 0.144896 0"/>
<feBlend mode="normal" in2="effect3_dropShadow_101_840" result="effect4_dropShadow_101_840"/>
<feColorMatrix in="SourceAlpha" type="matrix" values="0 0 0 0 0 0 0 0 0 0 0 0 0 0 0 0 0 0 127 0" result="hardAlpha"/>
<feOffset dy="33"/>
<feGaussianBlur stdDeviation="40"/>
<feColorMatrix type="matrix" values="0 0 0 0 1 0 0 0 0 1 0 0 0 0 1 0 0 0 0.21 0"/>
<feBlend mode="normal" in2="effect4_dropShadow_101_840" result="effect5_dropShadow_101_840"/>
<feBlend mode="normal" in="SourceGraphic" in2="effect5_dropShadow_101_840" result="shape"/>
</filter>
<radialGradient id="paint0_radial_101_840" cx="0" cy="0" r="1" gradientUnits="userSpaceOnUse" gradientTransform="translate(107 74) rotate(-90) scale(54)">
<stop stop-color="#758BFD"/>
<stop offset="1" stop-color="#523A8C"/>
</radialGradient>
</defs>
</svg>
