<svg width="108" height="108" viewBox="0 0 108 108" fill="none" xmlns="http://www.w3.org/2000/svg">
<rect width="108" height="108" rx="24" fill="white"/>
<rect width="108" height="108" rx="24" fill="url(#paint0_radial_101_651)" fill-opacity="0.2"/>
<path fill-rule="evenodd" clip-rule="evenodd" d="M23.0379 18.2535C30.5094 27.3219 42.0286 41.4409 42.6005 42.2312C43.0726 42.8839 42.8949 43.4707 42.0859 43.9306C41.6361 44.1862 40.7113 44.4454 40.2483 44.4454C39.7246 44.4454 39.1346 44.1932 38.7049 43.7856C38.4012 43.4977 37.1756 41.6673 34.346 37.277C32.1812 33.9178 30.3694 31.131 30.3199 31.0844C30.2056 30.9765 30.2075 30.98 34.1254 37.99C36.5854 42.3917 37.4158 43.9479 37.4158 44.156C37.4158 44.5793 37.3004 44.8019 36.7781 45.3843C35.9077 46.3554 35.5185 47.4466 35.2376 49.705C34.9227 52.2365 34.0372 54.0247 31.583 57.0853C30.1466 58.8769 29.9116 59.2053 29.549 59.9273C29.0924 60.8367 28.9669 61.346 28.9161 62.4943C28.8623 63.7084 28.967 64.4925 29.3379 65.6533C29.6626 66.6695 30.0015 67.3406 30.8681 68.6826C31.6159 69.8408 32.0465 70.7016 32.0465 71.0383C32.0465 71.3062 32.0976 71.3064 33.2564 71.0449C36.0295 70.4187 38.2812 69.3172 39.5476 67.9677C40.3313 67.1322 40.5154 66.6709 40.5213 65.5261C40.5252 64.7772 40.499 64.6204 40.2965 64.1897C39.967 63.4886 39.3671 62.9057 38.0451 62.0018C36.3129 60.8176 35.5729 59.8643 35.3685 58.5532C35.2009 57.4775 35.3955 56.7185 36.3538 54.71C37.3456 52.631 37.5915 51.7452 37.7577 49.6497C37.865 48.2958 38.0138 47.7618 38.4027 47.3332C38.8085 46.8864 39.1737 46.7351 40.1776 46.5978C41.8144 46.3743 42.8568 45.9508 43.7134 45.1613C44.4567 44.4766 44.7676 43.8166 44.8153 42.8232L44.8516 42.0703L44.4362 41.5861C42.9322 39.8324 22.0306 16.875 21.9381 16.875C21.9183 16.875 22.4132 17.4954 23.0379 18.2535ZM32.8908 63.868C33.2308 63.2657 33.0501 62.4914 32.4813 62.1132C31.9439 61.7559 31.1089 61.9243 31.1089 62.3899C31.1089 62.5321 31.1876 62.6355 31.3647 62.7267C31.6629 62.88 31.6845 63.0527 31.4499 63.4053C31.2122 63.7625 31.2315 64.0765 31.504 64.2898C31.9433 64.6338 32.565 64.4447 32.8908 63.868ZM43.1259 31.0273C42.455 30.9231 42.4267 30.9109 42.7425 30.8623C43.3476 30.7693 44.7765 30.8961 45.761 31.1303C48.0597 31.6767 50.1515 33.0764 52.3842 35.5624L52.9773 36.2228L53.8258 36.0863C57.4007 35.5119 61.0373 35.9685 64.079 37.3736C64.9158 37.7601 66.2352 38.5296 66.4 38.7273C66.4525 38.7905 66.549 39.1961 66.6142 39.629C66.8402 41.1266 66.7271 42.2745 66.269 43.132C66.0197 43.5986 66.0058 43.7463 66.1734 44.1457C66.3073 44.4644 66.6801 44.7002 67.0495 44.6996C67.8053 44.6987 68.619 43.4767 68.996 41.7765L69.1457 41.1011L69.4424 41.4371C71.0694 43.2807 72.3474 45.7947 72.567 47.5843L72.6243 48.0508L72.3507 47.6267C71.88 46.8967 71.407 46.4 70.8015 45.9992C69.7098 45.2769 68.5554 45.031 65.4984 44.8699C62.7374 44.7245 61.1747 44.4885 59.6252 43.9833C56.989 43.1239 55.66 41.9791 52.5285 37.8706C51.1376 36.0455 50.2779 35.036 49.4227 34.2229C47.4795 32.3752 45.5701 31.4064 43.1259 31.0273ZM67.0228 35.1018C67.0921 33.879 67.258 33.0725 67.5914 32.3359C67.7233 32.0442 67.8471 31.8056 67.8661 31.8056C67.8852 31.8056 67.8278 32.0208 67.7386 32.2838C67.4963 32.9986 67.4564 33.9765 67.6234 35.114C67.8354 36.5575 67.9559 36.7657 69.4815 38.3249C70.197 39.0563 71.0294 39.9787 71.3311 40.3747L71.8796 41.0947L71.3311 40.5801C70.6602 39.9508 69.1172 38.7235 68.7763 38.5481C68.5478 38.4305 68.5139 38.4325 68.3729 38.5728C68.2429 38.7021 68.2157 38.8964 68.1976 39.8148C68.1696 41.2462 67.9744 42.1649 67.5035 43.0835C67.2489 43.5804 67.2088 43.4743 67.4392 42.9135C67.6113 42.4948 67.6288 42.3107 67.6274 40.925C67.6248 38.141 67.2943 37.4717 65.3559 36.325C64.8649 36.0345 64.0558 35.6157 63.558 35.3941C63.0602 35.1725 62.6648 34.9796 62.6791 34.965C62.734 34.9105 64.6243 35.4623 65.3852 35.7548C66.5169 36.1903 66.7038 36.2466 66.8412 36.1941C66.9334 36.159 66.978 35.8906 67.0228 35.1018ZM42.4069 32.9641C42.2244 35.1136 43.0673 37.989 44.4294 39.8643C45.4854 41.3181 47.1223 42.4478 48.3308 42.5569C49.1219 42.6283 49.3598 42.3807 49.0019 41.858C48.5048 41.1321 47.8936 40.0146 47.7319 39.536C47.6314 39.2389 47.413 38.3608 47.2465 37.5849C46.6783 34.936 46.1199 33.9045 44.8297 33.1209C44.3596 32.8355 43.3557 32.4617 42.7734 32.3556L42.4633 32.299L42.4069 32.9641ZM65.3708 53.8221C59.005 51.2589 56.7629 49.0342 56.7629 45.2803C56.7629 44.7278 56.7819 44.2759 56.8051 44.2759C56.8282 44.2759 57.0746 44.4582 57.3525 44.6809C58.6433 45.7165 60.0888 46.1586 64.0906 46.7425C66.4455 47.086 67.7707 47.3635 68.9932 47.769C72.8785 49.0575 75.2826 51.6726 75.8558 55.2344C76.0224 56.2693 75.9248 58.2102 75.6546 59.233C75.4413 60.041 74.7907 61.4973 74.6182 61.5532C74.5703 61.5687 74.5233 61.3853 74.5112 61.1358C74.4457 59.7983 73.7698 58.4963 72.6347 57.5208C71.3441 56.4119 69.6103 55.529 65.3708 53.8221ZM60.5943 53.5398C60.6835 53.806 60.8217 54.4122 60.9016 54.8867C61.4113 57.9214 59.8185 60.373 56.72 61.323C56.3919 61.4236 55.0998 61.6765 53.8485 61.8848C51.3157 62.3066 50.1851 62.6051 49.0496 63.1523C48.2441 63.5402 47.269 64.1214 47.327 64.1791C47.3457 64.1978 47.5294 64.1539 47.7354 64.0814C49.1676 63.5785 50.7614 63.3184 53.1831 63.1925C54.144 63.1425 55.237 63.0629 55.6122 63.0158C57.7696 62.744 59.2645 62.0886 60.4275 60.9052C61.0746 60.2467 61.4602 59.6332 61.771 58.7679C61.968 58.2193 61.9947 58.0155 61.9963 57.043C61.9979 56.0523 61.9739 55.8711 61.7605 55.2614C61.481 54.4627 61.1509 53.8631 60.7334 53.3944L60.4317 53.0558L60.5943 53.5398ZM63.8198 60.0692C62.974 58.251 62.7799 56.4955 63.2431 54.8584C63.2928 54.6834 63.3724 54.5402 63.4204 54.5402C63.4683 54.5402 63.6679 54.6481 63.8638 54.78C64.2536 55.0423 65.0354 55.4843 67.1178 56.6197C69.7166 58.0365 71.1984 59.1337 72.2059 60.3872C73.0883 61.485 73.6345 62.7351 73.8972 64.2597C74.046 65.1233 73.9589 67.2013 73.7373 68.071C73.0385 70.8128 71.4146 72.9667 69.0985 74.2234C68.7591 74.4075 68.4545 74.5587 68.4215 74.5593C68.3886 74.56 68.5122 74.2457 68.6962 73.8606C69.4755 72.2319 69.5641 70.6475 68.9752 68.884C68.6144 67.8043 67.879 66.4868 66.3942 64.2601C64.6677 61.6711 64.2446 60.9821 63.8198 60.0692ZM47.8879 66.0331C45.2105 66.4679 42.2711 67.8851 39.9087 69.8796L39.2055 70.4735L39.8235 70.57C43.0489 71.0736 43.9176 71.5201 46.1549 73.8247C47.4425 75.151 47.8773 75.4461 48.9452 75.7188C50.5138 76.1192 52.0599 75.3834 52.5901 73.984C52.8271 73.3589 52.7955 72.3235 52.5237 71.8038C51.877 70.5661 49.9931 70.1659 49.0821 71.0727C48.3233 71.8279 48.5444 72.9657 49.4882 73.1613C49.7043 73.2062 49.698 73.1968 49.433 73.0769C49.0201 72.89 48.8407 72.6312 48.8384 72.2192C48.8331 71.253 49.9387 70.7105 50.9671 71.1746C51.7203 71.5145 52.0194 71.9586 52.0194 72.7369C52.0194 73.9356 50.9991 74.8387 49.8119 74.6911C49.1774 74.6121 48.4012 74.2062 47.9851 73.7356C46.938 72.5516 47.3459 70.6833 48.8079 69.9665C49.9208 69.4208 51.4003 69.5553 52.5475 70.3066C53.8657 71.1699 54.4264 71.9586 55.5617 74.5483C55.9314 75.3913 56.407 76.3404 56.6187 76.6572C57.6939 78.2672 58.9826 79.0568 60.5347 79.0568C61.3906 79.0568 62.0349 78.9005 62.845 78.4957C63.447 78.195 64.3003 77.6238 64.239 77.5628C64.2213 77.5453 63.9716 77.6228 63.684 77.735C61.9892 78.3961 60.2665 78.3505 59.2659 77.6183C58.6361 77.1571 58.1277 76.239 57.8666 75.0902C57.8214 74.8915 57.6721 74.0134 57.5349 73.1391C57.187 70.9225 56.853 69.9264 56.0743 68.7832C55.2774 67.6135 53.7453 66.6318 52.0326 66.1934C50.964 65.92 49.0418 65.8456 47.8879 66.0331ZM44.138 48.8973C44.3692 48.0435 45.1162 47.2291 45.8845 46.993C46.3731 46.843 47.3831 46.9389 47.858 47.1802C48.7783 47.648 49.4464 48.7139 49.3014 49.483C49.1245 50.4213 47.6034 51.1718 45.8535 51.1839C44.9597 51.1903 44.6296 51.0701 44.2883 50.6144C44.0769 50.3321 43.9969 49.4184 44.138 48.8973ZM47.6231 47.5145C48.0819 47.7948 48.2 48.2092 47.9301 48.5926C47.7443 48.8568 47.1688 49.1076 46.7484 49.1076C46.1166 49.1076 45.4272 48.6591 45.4272 48.2481C45.4272 47.4225 46.7489 46.9808 47.6231 47.5145Z" fill="#FF007A"/>
<defs>
<radialGradient id="paint0_radial_101_651" cx="0" cy="0" r="1" gradientUnits="userSpaceOnUse" gradientTransform="translate(54 -1.68751) rotate(90) scale(109.687)">
<stop stop-color="#FF007A"/>
<stop offset="1" stop-color="#FF007A" stop-opacity="0"/>
</radialGradient>
</defs>
</svg>
